<?xml version="1.0" encoding="UTF-8"?>
<svg version="1.1" xmlns="http://www.w3.org/2000/svg" width="360" height="360">
<path d="M0 0 C118.8 0 237.6 0 360 0 C360 118.8 360 237.6 360 360 C241.2 360 122.4 360 0 360 C0 241.2 0 122.4 0 0 Z " fill="#FCFCFC" transform="translate(0,0)"/>
<path d="M0 0 C-0.04640625 1.03640625 -0.0928125 2.0728125 -0.140625 3.140625 C-0.17815275 4.51038779 -0.21455184 5.88018182 -0.25 7.25 C-0.28351563 7.93191406 -0.31703125 8.61382812 -0.3515625 9.31640625 C-0.41931937 12.8058849 -0.38622881 14.55815424 1.953125 17.234375 C2.62859375 17.81703125 3.3040625 18.3996875 4 19 C4.98856173 21.86200584 5.07190324 24.32594955 4.87890625 27.328125 C4.83056641 28.12734375 4.78222656 28.9265625 4.73242188 29.75 C4.67634766 30.575 4.62027344 31.4 4.5625 32.25 C4.51029297 33.09046875 4.45808594 33.9309375 4.40429688 34.796875 C4.27504311 36.8649352 4.13825726 38.9325222 4 41 C5.65 41 7.3 41 9 41 C8.67773438 40.43152344 8.35546875 39.86304688 8.0234375 39.27734375 C6.35562076 35.56613322 6.41581662 31.98954507 7 28 C9.11651578 24.44727709 11.14963149 22.51264477 15 21 C15 18.69 15 16.38 15 14 C17.46800047 15.15173355 19.04783565 16.04783565 21 18 C21.125 20.625 21.125 20.625 21 23 C21.69867188 23.04898438 22.39734375 23.09796875 23.1171875 23.1484375 C24.02726562 23.22320312 24.93734375 23.29796875 25.875 23.375 C26.77992188 23.44460937 27.68484375 23.51421875 28.6171875 23.5859375 C31 24 31 24 33 26 C33.56520003 28.65537372 33.73788198 31.29144713 34 34 C34.66 34 35.32 34 36 34 C36 34.99 36 35.98 36 37 C33.03919794 38.97386804 31.2094971 39.57740272 27.80078125 40.3671875 C26.7634082 40.61114258 25.72603516 40.85509766 24.65722656 41.10644531 C23.00158691 41.48687988 23.00158691 41.48687988 21.3125 41.875 C19.04285778 42.4083822 16.77332651 42.94223671 14.50390625 43.4765625 C12.83932373 43.86569824 12.83932373 43.86569824 11.14111328 44.26269531 C7.00447438 45.23367693 2.874832 46.23013217 -1.25 47.25 C-3.05210937 47.69085938 -3.05210937 47.69085938 -4.890625 48.140625 C-9.8239052 49.33171841 -9.8239052 49.33171841 -14 52 C-15.90746008 52.40080066 -17.82677573 52.74587161 -19.75 53.0625 C-20.79671875 53.23910156 -21.8434375 53.41570312 -22.921875 53.59765625 C-25.66392252 53.95607109 -28.24032952 54.07665751 -31 54 C-30.67 53.01 -30.34 52.02 -30 51 C-27.1640625 49.83203125 -27.1640625 49.83203125 -23.625 48.8125 C-22.46226562 48.46832031 -21.29953125 48.12414062 -20.1015625 47.76953125 C-17 47 -17 47 -14 47 C-15.65 44.36 -17.3 41.72 -19 39 C-20.093125 40.010625 -21.18625 41.02125 -22.3125 42.0625 C-24.17578125 43.78515625 -24.17578125 43.78515625 -26 45 C-27.485 44.505 -27.485 44.505 -29 44 C-28.55527344 43.48050781 -28.11054688 42.96101563 -27.65234375 42.42578125 C-23.98628874 38.23796202 -23.98628874 38.23796202 -23.125 33 C-23.41375 32.34 -23.7025 31.68 -24 31 C-24.928125 31.680625 -25.85625 32.36125 -26.8125 33.0625 C-27.864375 33.701875 -28.91625 34.34125 -30 35 C-30.99 34.67 -31.98 34.34 -33 34 C-31.70700306 31.11562221 -30.34058637 29.12780579 -28 27 C-29.38563197 23.65138941 -30.76027096 21.70985699 -34 20 C-37.8355908 20.13523839 -37.8355908 20.13523839 -41 22 C-40.8613719 30.59494201 -37.63458698 37.41908046 -32.3046875 44.13671875 C-31 46 -31 46 -31 49 C-31.99 49 -32.98 49 -34 49 C-35.01866229 47.34467377 -36.01810813 45.67739862 -37 44 C-37.99 43.67 -38.98 43.34 -40 43 C-42.02532117 39.02436956 -43 36.4949298 -43 32 C-43.66 32 -44.32 32 -45 32 C-45.64196339 28.31347755 -46.11338198 24.74700432 -46 21 C-43.4387122 17.63830976 -41.54694354 17.14650273 -37.5 16.0625 C-33.43387099 15.98989055 -32.26575068 16.69032425 -29 19 C-26.86784733 21.26317881 -24.93176165 23.63202238 -22.96484375 26.0390625 C-20.91226286 28.08756271 -19.82918862 28.63453688 -17 29 C-17.02320313 28.3709375 -17.04640625 27.741875 -17.0703125 27.09375 C-17.19184081 21.32983602 -16.63773706 16.52736258 -15 11 C-15.99 11 -16.98 11 -18 11 C-18 7.7 -18 4.4 -18 1 C-15.36473759 -0.3176312 -13.05890299 -0.37393251 -10.125 -0.625 C-9.07570312 -0.72039062 -8.02640625 -0.81578125 -6.9453125 -0.9140625 C-4.33729071 -0.99015863 -2.45958914 -0.7960989 0 0 Z " fill="#4B4943" transform="translate(185,119)"/>
<path d="M0 0 C0.99 0.495 0.99 0.495 2 1 C2 11.89 2 22.78 2 34 C-7 37 -7 37 -9 37 C-9 38.32 -9 39.64 -9 41 C-8.484375 40.649375 -7.96875 40.29875 -7.4375 39.9375 C-3.28932655 38.34204867 0.37041494 39.31385892 4.375 41 C7.02986571 44.26752702 7.42632714 47.86387876 7 52 C4.4205861 55.22426738 2.46507281 55.87542693 -1.5 56.9375 C-5.40091221 57.00715915 -7.00672836 56.44904043 -10 54 C-10 53.34 -10 52.68 -10 52 C-10.78503906 52.2165625 -11.57007813 52.433125 -12.37890625 52.65625 C-18.06146019 54.1623011 -23.11655525 55.40114396 -29 55 C-29 56.65 -29 58.3 -29 60 C-28.34 60.33 -27.68 60.66 -27 61 C-27.66 61 -28.32 61 -29 61 C-29 61.66 -29 62.32 -29 63 C-33.17652474 65.38658556 -36.17404668 66.80432555 -41 66 C-46.40031706 62.73943121 -46.40031706 62.73943121 -47.66796875 59.0625 C-48.34308882 54.86881296 -47.98361148 51.73385691 -46 48 C-47.8871875 48.1546875 -47.8871875 48.1546875 -49.8125 48.3125 C-51.95703125 48.48828125 -51.95703125 48.48828125 -54 48 C-55.4140625 46.1171875 -55.4140625 46.1171875 -57 43 C-57.87294033 41.40050445 -58.74962908 39.80305208 -59.62890625 38.20703125 C-61.10982996 35.48700809 -62.58789101 32.76552497 -64.06054688 30.04101562 C-64.53685547 29.16767578 -65.01316406 28.29433594 -65.50390625 27.39453125 C-65.93517822 26.59893799 -66.3664502 25.80334473 -66.81079102 24.98364258 C-67.96982285 22.86825257 -67.96982285 22.86825257 -70 21 C-71.86988213 17.03584988 -73.34216894 13.34168501 -74 9 C-79.23492655 8.78328894 -83.70455256 9.51165243 -88.6875 11 C-92.56969068 12.13887853 -95.89786753 13 -100 13 C-100 12.01 -100 11.02 -100 10 C-96.46401043 8.95876278 -92.92053228 7.94571883 -89.375 6.9375 C-87.87646484 6.49567383 -87.87646484 6.49567383 -86.34765625 6.04492188 C-76.91661416 3.3904895 -76.91661416 3.3904895 -72 5 C-69.47457043 7.34504174 -68.96190826 9.14220916 -68.0625 12.5 C-67.30696954 15.977723 -67.30696954 15.977723 -65.1875 17.8125 C-60.46157641 22.53842359 -57.5245742 29.35539351 -57 36 C-56.01 36.33 -55.02 36.66 -54 37 C-53.505 39.97 -53.505 39.97 -53 43 C-35.48064209 41.39475078 -18.7279395 36.23729894 -2 31 C-1.96241577 29.64467163 -1.96241577 29.64467163 -1.92407227 28.26196289 C-1.82912683 24.9203572 -1.72988379 21.57893748 -1.62768555 18.23754883 C-1.5842837 16.7893576 -1.54261256 15.34111346 -1.50268555 13.89282227 C-1.44510938 11.81510441 -1.38137972 9.73765427 -1.31640625 7.66015625 C-1.27974854 6.40855713 -1.24309082 5.15695801 -1.20532227 3.86743164 C-1 1 -1 1 0 0 Z " fill="#E6E4E0" transform="translate(217,161)"/>
<path d="M0 0 C0.99 0.495 0.99 0.495 2 1 C2 11.89 2 22.78 2 34 C-4.10339832 36.03446611 -10.0237009 37.82869769 -16.25 39.3125 C-24.58475597 41.33331054 -32.81792921 43.61553181 -41.02050781 46.12036133 C-49.91203657 48.75954607 -49.91203657 48.75954607 -54 48 C-55.52734375 46.13671875 -55.52734375 46.13671875 -57 43 C-57.86869831 41.39819661 -58.74589566 39.80098957 -59.62890625 38.20703125 C-61.10982996 35.48700809 -62.58789101 32.76552497 -64.06054688 30.04101562 C-64.53685547 29.16767578 -65.01316406 28.29433594 -65.50390625 27.39453125 C-65.93517822 26.59893799 -66.3664502 25.80334473 -66.81079102 24.98364258 C-67.96982285 22.86825257 -67.96982285 22.86825257 -70 21 C-71.86988213 17.03584988 -73.34216894 13.34168501 -74 9 C-79.23492655 8.78328894 -83.70455256 9.51165243 -88.6875 11 C-92.56969068 12.13887853 -95.89786753 13 -100 13 C-100 12.01 -100 11.02 -100 10 C-96.46401043 8.95876278 -92.92053228 7.94571883 -89.375 6.9375 C-87.87646484 6.49567383 -87.87646484 6.49567383 -86.34765625 6.04492188 C-76.91661416 3.3904895 -76.91661416 3.3904895 -72 5 C-69.47457043 7.34504174 -68.96190826 9.14220916 -68.0625 12.5 C-67.30696954 15.977723 -67.30696954 15.977723 -65.1875 17.8125 C-60.46157641 22.53842359 -57.5245742 29.35539351 -57 36 C-56.01 36.33 -55.02 36.66 -54 37 C-53.505 39.97 -53.505 39.97 -53 43 C-35.48064209 41.39475078 -18.7279395 36.23729894 -2 31 C-1.96241577 29.64467163 -1.96241577 29.64467163 -1.92407227 28.26196289 C-1.82912683 24.9203572 -1.72988379 21.57893748 -1.62768555 18.23754883 C-1.5842837 16.7893576 -1.54261256 15.34111346 -1.50268555 13.89282227 C-1.44510938 11.81510441 -1.38137972 9.73765427 -1.31640625 7.66015625 C-1.27974854 6.40855713 -1.24309082 5.15695801 -1.20532227 3.86743164 C-1 1 -1 1 0 0 Z " fill="#5C5955" transform="translate(217,161)"/>
<path d="M0 0 C2.875 2.5625 2.875 2.5625 5 5 C3.69267618 7.91633776 2.24135944 9.75864056 0 12 C0 12.66 0 13.32 0 14 C0.86625 13.566875 0.86625 13.566875 1.75 13.125 C3.83333333 12.08333333 5.91666667 11.04166667 8 10 C10 13 10 13 9.78515625 14.953125 C8.92867635 17.18593827 7.87048814 18.83934914 6.4375 20.75 C5.98246094 21.36359375 5.52742187 21.9771875 5.05859375 22.609375 C4.70925781 23.06828125 4.35992187 23.5271875 4 24 C7.43595166 22.47291037 10.11912454 20.40072955 13 18 C13.83905565 19.12073862 14.67107831 20.24674547 15.5 21.375 C15.9640625 22.00148437 16.428125 22.62796875 16.90625 23.2734375 C18 25 18 25 18 27 C16.85660156 27.33773437 15.71320313 27.67546875 14.53515625 28.0234375 C13.04414843 28.47355307 11.55326959 28.92409603 10.0625 29.375 C9.30775391 29.59671875 8.55300781 29.8184375 7.77539062 30.046875 C5.83152088 30.63962452 3.91313548 31.31451172 2 32 C1.67 32.66 1.34 33.32 1 34 C0.34 34 -0.32 34 -1 34 C-1 33.34 -1 32.68 -1 32 C-1.99 32 -2.98 32 -4 32 C-4.33 33.32 -4.66 34.64 -5 36 C-5.33 33.69 -5.66 31.38 -6 29 C-5.34 29 -4.68 29 -4 29 C-3.67 28.01 -3.34 27.02 -3 26 C-2.67 26.99 -2.34 27.98 -2 29 C-1.01 29 -0.02 29 1 29 C0.70867187 28.48953125 0.41734375 27.9790625 0.1171875 27.453125 C-1.27710092 24.9802361 -2.64280344 22.49345414 -4 20 C-4.55042969 18.99066406 -5.10085937 17.98132813 -5.66796875 16.94140625 C-6.21066406 15.90886719 -6.75335938 14.87632812 -7.3125 13.8125 C-7.82425781 12.84957031 -8.33601562 11.88664063 -8.86328125 10.89453125 C-10.12518214 7.68123723 -10.33447333 5.4222923 -10 2 C-6.95757188 -1.62751045 -4.31969349 -1.41051216 0 0 Z " fill="#DBDAD6" transform="translate(153,139)"/>
<path d="M0 0 C2.31 0 4.62 0 7 0 C11.95727458 10.179258 13.34468904 18.68270981 13 30 C5.28506856 33.63055597 5.28506856 33.63055597 1 33 C-0.80078125 31.13671875 -0.80078125 31.13671875 -2.3125 28.6875 C-2.82425781 27.88699219 -3.33601562 27.08648437 -3.86328125 26.26171875 C-5 24 -5 24 -5 21 C-4.01 21 -3.02 21 -2 21 C-2.02320313 20.154375 -2.04640625 19.30875 -2.0703125 18.4375 C-2.17438066 11.89607279 -1.9612306 6.25142254 0 0 Z " fill="#F6F6F6" transform="translate(173,131)"/>
<path d="M0 0 C4 2 4 2 6 4 C6.125 6.625 6.125 6.625 6 9 C6.69867188 9.04898438 7.39734375 9.09796875 8.1171875 9.1484375 C9.02726563 9.22320312 9.93734375 9.29796875 10.875 9.375 C11.77992188 9.44460937 12.68484375 9.51421875 13.6171875 9.5859375 C16 10 16 10 18 12 C18.56520003 14.65537372 18.73788198 17.29144713 19 20 C19.66 20 20.32 20 21 20 C21 20.99 21 21.98 21 23 C18.09907498 24.93395001 17.10325263 25.30131941 13.8125 25.625 C12.554375 25.74875 11.29625 25.8725 10 26 C10 25.01 10 24.02 10 23 C8.783125 23.33 7.56625 23.66 6.3125 24 C3.13244525 24.78797817 0.29266796 25.3873727 -3 25 C-5 23 -5 23 -5.3125 19.125 C-5.2447898 16.26033786 -5.04049306 15.07362374 -3.625 12.5 C-2 11 -2 11 0 11 C0 7.37 0 3.74 0 0 Z " fill="#5A5954" transform="translate(200,133)"/>
<path d="M0 0 C-0.06960937 1.55460937 -0.06960937 1.55460937 -0.140625 3.140625 C-0.17815275 4.51038779 -0.21455184 5.88018182 -0.25 7.25 C-0.28351563 7.93191406 -0.31703125 8.61382812 -0.3515625 9.31640625 C-0.42020163 12.85132136 -0.33226992 14.60035129 1.96484375 17.36328125 C2.97224609 18.17345703 2.97224609 18.17345703 4 19 C5.35490794 22.23093432 4.83650281 24.65398876 4 28 C3.34 27.67 2.68 27.34 2 27 C1.34 27.99 0.68 28.98 0 30 C-0.10957031 29.43152344 -0.21914062 28.86304688 -0.33203125 28.27734375 C-1.38179653 23.1650722 -2.86584486 18.75334553 -5 14 C-5 13.34 -5 12.68 -5 12 C-7.31 12 -9.62 12 -12 12 C-12.95812032 18.98059091 -13.49656013 25.97326485 -14 33 C-14.99 32.67 -15.98 32.34 -17 32 C-17.20177072 24.64657821 -17.21211746 18.05112439 -15 11 C-15.99 11 -16.98 11 -18 11 C-18 7.7 -18 4.4 -18 1 C-15.36473759 -0.3176312 -13.05890299 -0.37393251 -10.125 -0.625 C-9.07570312 -0.72039062 -8.02640625 -0.81578125 -6.9453125 -0.9140625 C-4.33729071 -0.99015863 -2.45958914 -0.7960989 0 0 Z " fill="#595951" transform="translate(185,119)"/>
<path d="M0 0 C0.66 0.33 1.32 0.66 2 1 C2 11.89 2 22.78 2 34 C-4.10339832 36.03446611 -10.0237009 37.82869769 -16.25 39.3125 C-24.58475597 41.33331054 -32.81792921 43.61553181 -41.02050781 46.12036133 C-45.48012542 47.44406562 -49.29016949 48.32984155 -54 48 C-53.67 46.68 -53.34 45.36 -53 44 C-51.38738281 43.85304688 -51.38738281 43.85304688 -49.7421875 43.703125 C-44.04279615 42.98725942 -38.6298973 41.3464581 -33.125 39.75 C-30.91021023 39.11830031 -28.69536601 38.48679146 -26.48046875 37.85546875 C-24.84537354 37.38633057 -24.84537354 37.38633057 -23.17724609 36.90771484 C-18.60414767 35.60121569 -14.02157113 34.32985532 -9.4375 33.0625 C-7.97784023 32.65763989 -6.51820206 32.25270185 -5.05859375 31.84765625 C-3.54458984 31.42806641 -3.54458984 31.42806641 -2 31 C-1.96241577 29.64467163 -1.96241577 29.64467163 -1.92407227 28.26196289 C-1.82912683 24.9203572 -1.72988379 21.57893748 -1.62768555 18.23754883 C-1.5842837 16.7893576 -1.54261256 15.34111346 -1.50268555 13.89282227 C-1.44510938 11.81510441 -1.38137972 9.73765427 -1.31640625 7.66015625 C-1.27974854 6.40855713 -1.24309082 5.15695801 -1.20532227 3.86743164 C-1 1 -1 1 0 0 Z " fill="#504D48" transform="translate(217,161)"/>
<path d="M0 0 C1.37671875 0.01353516 1.37671875 0.01353516 2.78125 0.02734375 C5.02111556 0.05067568 7.26041183 0.08340765 9.5 0.125 C9.5 1.115 9.5 2.105 9.5 3.125 C7.59541016 3.14626953 7.59541016 3.14626953 5.65234375 3.16796875 C-9.11811649 3.50516755 -21.64247263 5.34077833 -33.64453125 14.76953125 C-35.5 16.125 -35.5 16.125 -37.5 16.125 C-37.8403125 16.929375 -37.8403125 16.929375 -38.1875 17.75 C-39.57015229 20.25194224 -41.27698784 22.2489116 -43.12890625 24.4140625 C-46.46243157 28.57384623 -49.42230112 32.85364676 -50.5 38.125 C-51.16 38.125 -51.82 38.125 -52.5 38.125 C-53.16 43.405 -53.82 48.685 -54.5 54.125 C-55.49 54.125 -56.48 54.125 -57.5 54.125 C-58.59926668 43.3521865 -53.90459836 32.2666805 -47.83203125 23.56640625 C-47.39246094 23.09074219 -46.95289063 22.61507812 -46.5 22.125 C-45.84 22.125 -45.18 22.125 -44.5 22.125 C-44.273125 21.568125 -44.04625 21.01125 -43.8125 20.4375 C-41.54399551 16.44061114 -38.88100054 13.58533351 -34.5 12.125 C-34.5 11.465 -34.5 10.805 -34.5 10.125 C-32.00494359 8.82296813 -29.50462318 7.53339734 -27 6.25 C-26.30390625 5.88519531 -25.6078125 5.52039063 -24.890625 5.14453125 C-16.50694596 0.87506507 -9.36935421 -0.17703722 0 0 Z " fill="#E6A462" transform="translate(178.5,105.875)"/>
<path d="M0 0 C3.91083216 -0.06742814 7.45263053 -0.09294953 11.3125 0.5625 C14.08967375 1.22819173 14.08967375 1.22819173 17 0 C20.5 -0.375 20.5 -0.375 24 0 C26 2.125 26 2.125 27 5 C26.78233633 8.70028236 26.64508959 10.35491041 24 13 C17.84 13.56 17.84 13.56 15.125 11.75 C13.89493337 9.83656302 13.38497994 8.23288365 13 6 C11.68 5.67 10.36 5.34 9 5 C9 7.64 9 10.28 9 13 C8.34 13 7.68 13 7 13 C6.67 11.68 6.34 10.36 6 9 C4.68 9 3.36 9 2 9 C2 10.32 2 11.64 2 13 C1.34 13 0.68 13 0 13 C0 8.71 0 4.42 0 0 Z " fill="#52514E" transform="translate(147,236)"/>
<path d="M0 0 C3.03902998 0.22492821 4.37060257 0.54412661 7 2.1875 C8.90890669 5.28947337 9.09411026 8.03964062 9.5 11.625 C10.16 11.955 10.82 12.285 11.5 12.625 C10.84 12.625 10.18 12.625 9.5 12.625 C9.5 13.285 9.5 13.945 9.5 14.625 C5.32347526 17.01158556 2.32595332 18.42932555 -2.5 17.625 C-5.875 15.5 -5.875 15.5 -8.5 12.625 C-9.32471113 8.74885767 -8.61280193 6.88983931 -7.0625 3.25 C-4.2742315 0.39372495 -3.77550219 0.17415826 0 0 Z " fill="#52524E" transform="translate(178.5,209.375)"/>
<path d="M0 0 C2.375 1 2.375 1 4 3 C4.94617443 6.05910382 5.32902426 8.80788746 5 12 C2.4205861 15.22426738 0.46507281 15.87542693 -3.5 16.9375 C-7.42133238 17.00752379 -8.96374573 16.4111431 -12 14 C-13.59616743 10.80766515 -13.51466114 7.46538503 -13 4 C-9.03005422 -1.16092951 -6.21282214 -1.28541148 0 0 Z " fill="#4D4E49" transform="translate(219,201)"/>
<path d="M0 0 C0.66 0.33 1.32 0.66 2 1 C2 1.99 2 2.98 2 4 C2.71027344 3.98839844 3.42054688 3.97679687 4.15234375 3.96484375 C5.07144531 3.95582031 5.99054688 3.94679687 6.9375 3.9375 C7.85402344 3.92589844 8.77054688 3.91429687 9.71484375 3.90234375 C12 4 12 4 13 5 C13.04080783 6.99958364 13.04254356 9.00045254 13 11 C10.94037148 11.67548578 8.87715678 12.34004312 6.8125 13 C5.66394531 13.37125 4.51539063 13.7425 3.33203125 14.125 C0.3271712 14.914084 -1.92678335 15.34935322 -5 15 C-7 13 -7 13 -7.125 9.875 C-7.08375 8.92625 -7.0425 7.9775 -7 7 C-6.01 6.67 -5.02 6.34 -4 6 C-2.79117904 3.99983534 -2.79117904 3.99983534 -2 2 C-1.34 2 -0.68 2 0 2 C0 1.34 0 0.68 0 0 Z " fill="#D8D6D3" transform="translate(202,143)"/>
<path d="M0 0 C0 0.99 0 1.98 0 3 C-0.66 3.556875 -1.32 4.11375 -2 4.6875 C-4.23921232 7.27658925 -4.29493516 7.90873008 -4.3125 11.1875 C-4.43155899 14.78410016 -4.43155899 14.78410016 -3 16 C-0.80949979 15.90982004 1.378466 15.75333792 3.5625 15.5625 C4.76003906 15.46066406 5.95757812 15.35882813 7.19140625 15.25390625 C8.11824219 15.17011719 9.04507813 15.08632812 10 15 C10 15.99 10 16.98 10 18 C7.2944888 18.84358924 4.58619457 19.67504771 1.875 20.5 C1.11445313 20.73847656 0.35390625 20.97695312 -0.4296875 21.22265625 C-4.74974618 22.52612223 -8.43306391 23.291817 -13 23 C-13 21.02 -13 19.04 -13 17 C-13.33 17 -13.66 17 -14 17 C-14.05406122 15.06280622 -14.09282025 13.12518079 -14.125 11.1875 C-14.14820313 10.10855469 -14.17140625 9.02960938 -14.1953125 7.91796875 C-14 5 -14 5 -12 2 C-10.86519473 5.60993172 -10.89984233 8.9842327 -10.9375 12.75 C-10.94652344 13.92046875 -10.95554688 15.0909375 -10.96484375 16.296875 C-10.97644531 17.18890625 -10.98804688 18.0809375 -11 19 C-9.35 19 -7.7 19 -6 19 C-6.32226562 18.43152344 -6.64453125 17.86304688 -6.9765625 17.27734375 C-8.64176938 13.57194066 -8.59643548 9.98333697 -8 6 C-5.90150718 2.64241149 -4.1997962 0 0 0 Z " fill="#4C4A44" transform="translate(200,141)"/>
<path d="M0 0 C-0.33 1.32 -0.66 2.64 -1 4 C-1.67160156 4.06316406 -2.34320313 4.12632812 -3.03515625 4.19140625 C-11.91396548 5.27977641 -20.07674099 7.76536914 -28.58447266 10.45556641 C-35.36346712 12.5740722 -41.91752917 14.25367512 -49 15 C-49.33 14.01 -49.66 13.02 -50 12 C-39.7322908 8.75279161 -29.39721644 5.80111686 -19 3 C-18.23526367 2.7927832 -17.47052734 2.58556641 -16.68261719 2.37207031 C-14.47849155 1.7793405 -12.27137456 1.19974911 -10.0625 0.625 C-9.06029419 0.35526367 -9.06029419 0.35526367 -8.0378418 0.08007812 C-4.80159342 -0.74465817 -3.24279362 -1.08093121 0 0 Z " fill="#4C4A44" transform="translate(210,167)"/>
<path d="M0 0 C3.96 0 7.92 0 12 0 C12 1.32 12 2.64 12 4 C12.66 4 13.32 4 14 4 C14.144375 4.7425 14.28875 5.485 14.4375 6.25 C14.623125 7.1575 14.80875 8.065 15 9 C15.12375 9.70125 15.2475 10.4025 15.375 11.125 C15.87887965 13.10248645 15.87887965 13.10248645 17.5 14.5 C19.3476491 16.3476491 19.69618246 17.41755093 20 20 C19.5625 22.75 19.5625 22.75 19 25 C18.34 24.67 17.68 24.34 17 24 C16.34 24.99 15.68 25.98 15 27 C14.89042969 26.43152344 14.78085938 25.86304688 14.66796875 25.27734375 C13.61820347 20.1650722 12.13415514 15.75334553 10 11 C10 10.34 10 9.68 10 9 C8.02 9 6.04 9 4 9 C4 8.67 4 8.34 4 8 C6.31 8 8.62 8 11 8 C11 8.66 11 9.32 11 10 C11.66 10 12.32 10 13 10 C13 8.68 13 7.36 13 6 C12.154375 6.185625 11.30875 6.37125 10.4375 6.5625 C6.7226718 7.03529632 3.67025727 6.66064631 0 6 C0 4.02 0 2.04 0 0 Z " fill="#6C6A66" transform="translate(170,122)"/>
<path d="M0 0 C0 0.99 0 1.98 0 3 C-11.68390095 7.1248583 -11.68390095 7.1248583 -16.0625 7.625 C-19.18542374 7.80232037 -19.18542374 7.80232037 -22 10 C-24.09059306 10.42705039 -26.1985547 10.77235064 -28.3125 11.0625 C-29.42238281 11.21847656 -30.53226563 11.37445313 -31.67578125 11.53515625 C-33.32126953 11.76525391 -33.32126953 11.76525391 -35 12 C-37.0010408 12.32702724 -39.00140659 12.65833426 -41 13 C-41 12.01 -41 11.02 -41 10 C-33.1623261 7.13461384 -25.18553493 4.89075205 -17.125 2.75 C-16.12654053 2.47978027 -15.12808105 2.20956055 -14.09936523 1.93115234 C-9.30638283 0.67800604 -5.00147377 -0.37299126 0 0 Z " fill="#696862" transform="translate(209,185)"/>
<path d="M0 0 C-0.33 0.99 -0.66 1.98 -1 3 C-2.81567383 3.81201172 -2.81567383 3.81201172 -5.20703125 4.4296875 C-6.09487305 4.6654248 -6.98271484 4.90116211 -7.89746094 5.14404297 C-8.85942383 5.38525879 -9.82138672 5.62647461 -10.8125 5.875 C-11.7912207 6.13039551 -12.76994141 6.38579102 -13.77832031 6.64892578 C-16.84896091 7.44594998 -19.92397414 8.22404798 -23 9 C-24.94672479 9.49957076 -26.89334317 9.99955639 -28.83984375 10.5 C-42.57145374 14 -42.57145374 14 -45 14 C-45 13.01 -45 12.02 -45 11 C-34.20016718 7.44352377 -23.44725569 4.22585487 -12.34375 1.76171875 C-4.20049839 -0.09334441 -4.20049839 -0.09334441 0 0 Z " fill="#4D4D4B" transform="translate(209,176)"/>
<path d="M0 0 C0.99 0 1.98 0 3 0 C5.52531776 17.04589491 3.00252662 32.21013483 -6 47 C-6.99 46.67 -7.98 46.34 -9 46 C-8.60167969 45.20078125 -8.20335937 44.4015625 -7.79296875 43.578125 C-0.61159322 28.69118595 0.44631305 16.28699328 0 0 Z " fill="#E2A15C" transform="translate(233,150)"/>
<path d="M0 0 C2.31 0 4.62 0 7 0 C6.67 0.99 6.34 1.98 6 3 C6.99 3 7.98 3 9 3 C9 4.65 9 6.3 9 8 C7.4188708 8.50692692 5.83498617 9.00526443 4.25 9.5 C3.36828125 9.7784375 2.4865625 10.056875 1.578125 10.34375 C-1 11 -1 11 -5 11 C-5 10.01 -5 9.02 -5 8 C-7.475 7.01 -7.475 7.01 -10 6 C-9.34 5.67 -8.68 5.34 -8 5 C-8 4.34 -8 3.68 -8 3 C-5.36 2.67 -2.72 2.34 0 2 C0 1.34 0 0.68 0 0 Z " fill="#F5F4F1" transform="translate(194,202)"/>
<path d="M0 0 C0 0.66 0 1.32 0 2 C-5.41695837 4.14243747 -10.69031405 5.75885332 -16.375 7 C-22.01021377 8.26959604 -27.53265625 9.65865376 -33.01953125 11.484375 C-35 12 -35 12 -39 12 C-38.67 11.01 -38.34 10.02 -38 9 C-35.81030273 8.04858398 -35.81030273 8.04858398 -32.93359375 7.24609375 C-31.89009766 6.94896484 -30.84660156 6.65183594 -29.77148438 6.34570312 C-28.12116211 5.89614258 -28.12116211 5.89614258 -26.4375 5.4375 C-24.8277832 4.98213867 -24.8277832 4.98213867 -23.18554688 4.51757812 C-20.12873563 3.65837643 -17.06687663 2.82247819 -14 2 C-13.1951416 1.78375977 -12.3902832 1.56751953 -11.56103516 1.34472656 C-7.59440754 0.31217895 -4.10743478 -0.20537174 0 0 Z " fill="#E4A86A" transform="translate(142,180)"/>
<path d="M0 0 C2.875 2.5625 2.875 2.5625 5 5 C4.5 6.875 4.5 6.875 3 9 C0.34822355 9.98494554 -2.20547307 10.45912382 -5 11 C-5 10.01 -5 9.02 -5 8 C-6.65 8 -8.3 8 -10 8 C-10.25 5.1875 -10.25 5.1875 -10 2 C-6.95757188 -1.62751045 -4.31969349 -1.41051216 0 0 Z " fill="#EDECE9" transform="translate(153,139)"/>
<path d="M0 0 C11.6 -0.2 11.6 -0.2 16 2 C15.01 3.32 14.02 4.64 13 6 C11.68 5.67 10.36 5.34 9 5 C9 7.64 9 10.28 9 13 C8.34 13 7.68 13 7 13 C6.67 11.68 6.34 10.36 6 9 C4.68 9 3.36 9 2 9 C2 10.32 2 11.64 2 13 C1.34 13 0.68 13 0 13 C0 8.71 0 4.42 0 0 Z " fill="#63635D" transform="translate(147,236)"/>
<path d="M0 0 C2 3 2 3 1.75 6.0625 C1 9 1 9 -1 11 C-3.375 11.375 -3.375 11.375 -6 11 C-8.7666501 8.98109317 -9.84010853 7.81944377 -10.5 4.4375 C-10 2 -10 2 -8.375 0.125 C-5.16017375 -1.39781243 -3.36182684 -1.02316469 0 0 Z " fill="#F2F2F1" transform="translate(218,204)"/>
<path d="M0 0 C3.0625 0.3125 3.0625 0.3125 5 1.4375 C6.0625 3.3125 6.0625 3.3125 5.9375 6.375 C5.0625 9.3125 5.0625 9.3125 2.0625 11.3125 C-0.4375 11.6875 -0.4375 11.6875 -2.9375 11.3125 C-4.8125 9.625 -4.8125 9.625 -5.9375 7.3125 C-5.61764525 2.8345335 -4.76027546 0.50641228 0 0 Z " fill="#F6F6F5" transform="translate(178.9375,212.6875)"/>
<path d="M0 0 C0.33 1.65 0.66 3.3 1 5 C0.01 5.495 0.01 5.495 -1 6 C-1 5.34 -1 4.68 -1 4 C-6.23492655 3.78328894 -10.70455256 4.51165243 -15.6875 6 C-19.56969068 7.13887853 -22.89786753 8 -27 8 C-27 7.01 -27 6.02 -27 5 C-23.44254137 3.961009 -19.87841256 2.94705842 -16.3125 1.9375 C-14.80139648 1.49567383 -14.80139648 1.49567383 -13.25976562 1.04492188 C-12.28330078 0.77099609 -11.30683594 0.49707031 -10.30078125 0.21484375 C-9.40528564 -0.04176025 -8.50979004 -0.29836426 -7.5871582 -0.56274414 C-4.75272705 -1.04179163 -2.75974851 -0.7328883 0 0 Z " fill="#4F4E48" transform="translate(144,166)"/>
<path d="M0 0 C0.66 0.33 1.32 0.66 2 1 C2 11.89 2 22.78 2 34 C0 33 0 33 -1 31 C-1.09771688 28.76080846 -1.13077374 26.5186655 -1.1328125 24.27734375 C-1.13376923 23.61666397 -1.13472595 22.95598419 -1.13571167 22.27528381 C-1.13639216 20.87907821 -1.134547 19.48286944 -1.13037109 18.08666992 C-1.12501243 15.94247386 -1.13032479 13.79848647 -1.13671875 11.65429688 C-1.13605811 10.2994787 -1.13477725 8.94466066 -1.1328125 7.58984375 C-1.13168457 6.35097412 -1.13055664 5.11210449 -1.12939453 3.83569336 C-1 1 -1 1 0 0 Z " fill="#46443D" transform="translate(217,161)"/>
<path d="M0 0 C3.96 0 7.92 0 12 0 C12 1.32 12 2.64 12 4 C11.34 4 10.68 4 10 4 C10 3.34 10 2.68 10 2 C7.69 2.33 5.38 2.66 3 3 C0.95461111 9.95432222 0.41830366 16.77875787 0 24 C-0.99 23.67 -1.98 23.34 -3 23 C-3.38363893 8.82667294 -3.38363893 8.82667294 -1 3 C-0.34 2.67 0.32 2.34 1 2 C0.67 1.34 0.34 0.68 0 0 Z " fill="#4A4944" transform="translate(171,128)"/>
<path d="M0 0 C2.31 0 4.62 0 7 0 C9.11618257 3.48547718 9.11618257 3.48547718 8.5625 5.9375 C8.376875 6.618125 8.19125 7.29875 8 8 C8.38567131 10.68149993 8.38567131 10.68149993 9 13 C8.01 12.67 7.02 12.34 6 12 C6 11.01 6 10.02 6 9 C4.68 9 3.36 9 2 9 C2 10.32 2 11.64 2 13 C1.34 13 0.68 13 0 13 C0 8.71 0 4.42 0 0 Z " fill="#7A7975" transform="translate(207,236)"/>
<path d="M0 0 C0.99 0 1.98 0 3 0 C5.42580805 3.63871208 7.41223816 7.4501152 9.46484375 11.30859375 C10.90818864 13.99059421 10.90818864 13.99059421 12.69140625 16.16015625 C14 18 14 18 14 21 C13.01 21 12.02 21 11 21 C9.98133771 19.34467377 8.98189187 17.67739862 8 16 C7.01 15.67 6.02 15.34 5 15 C2.97467883 11.02436956 2 8.4949298 2 4 C1.34 4 0.68 4 0 4 C0 2.68 0 1.36 0 0 Z " fill="#696763" transform="translate(140,147)"/>
<path d="M0 0 C2.5625 1.8125 2.5625 1.8125 4 4 C3.75 6.25 3.75 6.25 3 8 C2.13375 7.154375 1.2675 6.30875 0.375 5.4375 C-2.2533697 3.22117875 -2.67616277 2.98777973 -6.3125 3.125 C-8.89103344 3.73988103 -8.89103344 3.73988103 -10 5 C-10.39148761 6.51165654 -10.73972457 8.03469632 -11.0625 9.5625 C-11.23910156 10.38878906 -11.41570312 11.21507812 -11.59765625 12.06640625 C-11.73042969 12.70449219 -11.86320313 13.34257812 -12 14 C-14.36999926 10.44500111 -14.92524733 8.26090222 -15 4 C-10.29768555 -0.82940403 -6.46724253 -1.65826731 0 0 Z " fill="#474641" transform="translate(154,136)"/>
<path d="M0 0 C4 2 4 2 6 4 C6.125 6.625 6.125 6.625 6 9 C6.66 9.33 7.32 9.66 8 10 C7.01 10.99 6.02 11.98 5 13 C7.64 13 10.28 13 13 13 C13 13.33 13 13.66 13 14 C9.7 14.33 6.4 14.66 3 15 C2.67 13.35 2.34 11.7 2 10 C2 10.66 2 11.32 2 12 C0.04072937 13.7143618 -1.95880212 15.38405168 -4 17 C-4.33 16.34 -4.66 15.68 -5 15 C-3.625 13 -3.625 13 -2 11 C-1.34 11 -0.68 11 0 11 C0 7.37 0 3.74 0 0 Z " fill="#B2B0AC" transform="translate(200,133)"/>
<path d="M0 0 C-0.2165625 1.485 -0.2165625 1.485 -0.4375 3 C-1.00925179 6.99409465 -1.50819834 10.99532937 -2 15 C-2.99 15 -3.98 15 -5 15 C-5 14.34 -5 13.68 -5 13 C-6.65 13 -8.3 13 -10 13 C-10 12.67 -10 12.34 -10 12 C-8.35 12 -6.7 12 -5 12 C-5 10.35 -5 8.7 -5 7 C-5.99 7 -6.98 7 -8 7 C-8 6.34 -8 5.68 -8 5 C-9.65 4.67 -11.3 4.34 -13 4 C-10.34531286 2.23020858 -8.92500069 1.57859829 -5.9375 0.875 C-5.24527344 0.70742187 -4.55304688 0.53984375 -3.83984375 0.3671875 C-2 0 -2 0 0 0 Z " fill="#D9D7D3" transform="translate(208,198)"/>
<path d="M0 0 C2.01822917 0.06510417 4.03645833 0.13020833 6.0546875 0.1953125 C6.3846875 0.8553125 6.7146875 1.5153125 7.0546875 2.1953125 C4.4146875 2.1953125 1.7746875 2.1953125 -0.9453125 2.1953125 C-0.9453125 4.5053125 -0.9453125 6.8153125 -0.9453125 9.1953125 C1.5296875 10.1853125 1.5296875 10.1853125 4.0546875 11.1953125 C4.0546875 9.8753125 4.0546875 8.5553125 4.0546875 7.1953125 C3.3946875 6.8653125 2.7346875 6.5353125 2.0546875 6.1953125 C3.7046875 6.1953125 5.3546875 6.1953125 7.0546875 6.1953125 C7.09723106 8.19485996 7.09549533 10.19572886 7.0546875 12.1953125 C6.0546875 13.1953125 6.0546875 13.1953125 2.6796875 13.4453125 C-0.9453125 13.1953125 -0.9453125 13.1953125 -2.8828125 12.1953125 C-4.66484787 8.84089298 -4.24389992 5.95751405 -3.9453125 2.1953125 C-1.9453125 0.1953125 -1.9453125 0.1953125 0 0 Z " fill="#454542" transform="translate(133.9453125,235.8046875)"/>
<path d="M0 0 C3.93220893 3.27684077 4.62202501 6.17708752 6 11 C7.97827485 13.39909163 7.97827485 13.39909163 10 15 C9.67 15.99 9.34 16.98 9 18 C6 18 6 18 3 16 C0.19513118 10.39026237 0 6.13436009 0 0 Z " fill="#605F5C" transform="translate(144,166)"/>
<path d="M0 0 C1.32 0 2.64 0 4 0 C4.87181906 2.35391146 5.03194352 3.83115569 4.5625 6.3125 C2.22985621 10.32464732 -1.08201138 13.50179736 -5 16 C-5.99 15.67 -6.98 15.34 -8 15 C-7.566875 14.46890625 -7.13375 13.9378125 -6.6875 13.390625 C-6.130625 12.68421875 -5.57375 11.9778125 -5 11.25 C-4.443125 10.55390625 -3.88625 9.8578125 -3.3125 9.140625 C-1.65152802 6.85015251 -1.65152802 6.85015251 -2 3 C-1.01 3 -0.02 3 1 3 C0.67 2.01 0.34 1.02 0 0 Z " fill="#4D4B47" transform="translate(164,148)"/>
<path d="M0 0 C0.99 0 1.98 0 3 0 C4.30512614 8.80960142 4.30512614 17.19039858 3 26 C2.34 26 1.68 26 1 26 C0.67 17.42 0.34 8.84 0 0 Z " fill="#EA9B50" transform="translate(233,150)"/>
<path d="M0 0 C0 0.99 0 1.98 0 3 C-2.93479598 3.86458312 -5.87221519 4.71697187 -8.8125 5.5625 C-10.06256836 5.9327832 -10.06256836 5.9327832 -11.33789062 6.31054688 C-12.14033203 6.53935547 -12.94277344 6.76816406 -13.76953125 7.00390625 C-14.50792236 7.21861572 -15.24631348 7.4333252 -16.00708008 7.65454102 C-18 8 -18 8 -21 7 C-18.31414932 3.44938679 -14.61575695 2.81988051 -10.5 1.8125 C-9.82324219 1.63525391 -9.14648438 1.45800781 -8.44921875 1.27539062 C-5.55428297 0.53595437 -2.99932094 0 0 0 Z " fill="#4D4B46" transform="translate(188,190)"/>
<path d="M0 0 C1.32 0 2.64 0 4 0 C4 0.99 4 1.98 4 3 C6.31 2.34 8.62 1.68 11 1 C9.25 5.875 9.25 5.875 7 7 C6.34 6.67 5.68 6.34 5 6 C5.30035156 6.54269531 5.60070312 7.08539063 5.91015625 7.64453125 C6.29042969 8.35996094 6.67070312 9.07539063 7.0625 9.8125 C7.63677734 10.87404297 7.63677734 10.87404297 8.22265625 11.95703125 C9 14 9 14 8 17 C6.65869239 14.73354942 5.32683766 12.46239903 4 10.1875 C3.42765625 9.22360352 3.42765625 9.22360352 2.84375 8.24023438 C0 3.33984375 0 3.33984375 0 0 Z " fill="#BEBDB9" transform="translate(144,147)"/>
<path d="M0 0 C3.96 0 7.92 0 12 0 C12 1.65 12 3.3 12 5 C6.06 5.495 6.06 5.495 0 6 C0 4.02 0 2.04 0 0 Z " fill="#F1F1F0" transform="translate(170,122)"/>
<path d="M0 0 C2.64 0 5.28 0 8 0 C8 0.33 8 0.66 8 1 C6.35 1 4.7 1 3 1 C3 2.32 3 3.64 3 5 C4.32 5 5.64 5 7 5 C7 5.66 7 6.32 7 7 C5.68 7 4.36 7 3 7 C3 8.32 3 9.64 3 11 C4.65 11 6.3 11 8 11 C8 11.66 8 12.32 8 13 C5.36 13 2.72 13 0 13 C0 8.71 0 4.42 0 0 Z " fill="#575754" transform="translate(193,236)"/>
<path d="M0 0 C2.40928735 0.96371494 3.76007009 1.65210163 5.25 3.8125 C6.11081611 6.32321365 6.14647297 8.36348649 6 11 C6.66 11.33 7.32 11.66 8 12 C7.34 12 6.68 12 6 12 C6 12.66 6 13.32 6 14 C3 15 3 15 0.8125 14.0625 C0.214375 13.711875 -0.38375 13.36125 -1 13 C-0.484375 12.608125 0.03125 12.21625 0.5625 11.8125 C1.2740625 10.9153125 1.2740625 10.9153125 2 10 C1.76956136 7.34533951 1.76956136 7.34533951 1 5 C-0.98 4.34 -2.96 3.68 -5 3 C-4.360625 2.690625 -3.72125 2.38125 -3.0625 2.0625 C-1.06389179 1.1654837 -1.06389179 1.1654837 0 0 Z " fill="#605E5A" transform="translate(182,210)"/>
<path d="M0 0 C1.670625 0.061875 1.670625 0.061875 3.375 0.125 C3.375 0.785 3.375 1.445 3.375 2.125 C2.055 2.125 0.735 2.125 -0.625 2.125 C-0.955 3.115 -1.285 4.105 -1.625 5.125 C-2.285 5.125 -2.945 5.125 -3.625 5.125 C-2.99966625 7.64863988 -2.99966625 7.64863988 -1.625 10.125 C0.92275306 11.01886164 0.92275306 11.01886164 3.375 11.125 C3.045 11.785 2.715 12.445 2.375 13.125 C-0.5 13.25 -0.5 13.25 -3.625 13.125 C-5.625 11.125 -5.625 11.125 -5.890625 9.03125 C-5.88289062 7.84015625 -5.88289062 7.84015625 -5.875 6.625 C-5.88015625 5.8309375 -5.8853125 5.036875 -5.890625 4.21875 C-5.38436796 0.22825337 -3.79812269 0.13096975 0 0 Z " fill="#535250" transform="translate(184.625,235.875)"/>
<path d="M0 0 C2.5 0.125 2.5 0.125 3.5 1.125 C3.73529412 6.65441176 3.73529412 6.65441176 2.5 9.125 C0.83388095 9.167721 -0.83382885 9.16563832 -2.5 9.125 C-3.5 8.125 -3.5 8.125 -3.625 4.625 C-3.46601073 0.17330054 -3.46601073 0.17330054 0 0 Z " fill="#F1F0EC" transform="translate(167.5,237.875)"/>
<path d="M0 0 C0.99 0 1.98 0 3 0 C3 0.66 3 1.32 3 2 C5.31 1.34 7.62 0.68 10 0 C9.71125 0.845625 9.4225 1.69125 9.125 2.5625 C7.99227296 6.02361041 6.98175684 9.49372557 6 13 C5.34 13 4.68 13 4 13 C4 11.35 4 9.7 4 8 C3.34 8 2.68 8 2 8 C1.34 5.36 0.68 2.72 0 0 Z " fill="#464641" transform="translate(220,236)"/>
<path d="M0 0 C1.5625 1.25 1.5625 1.25 3 3 C2.60347032 6.39882581 1.19409849 8.25333784 -1.0625 10.75 C-1.61035156 11.36359375 -2.15820312 11.9771875 -2.72265625 12.609375 C-3.14417969 13.06828125 -3.56570312 13.5271875 -4 14 C-5.60031344 10.79937313 -4.03173691 8.27728194 -3 5 C-3.66 4.67 -4.32 4.34 -5 4 C-3.35 2.68 -1.7 1.36 0 0 Z " fill="#D4D2CE" transform="translate(160,149)"/>
<path d="M0 0 C0.99 0.495 0.99 0.495 2 1 C2 1.66 2 2.32 2 3 C2.99 3.33 3.98 3.66 5 4 C5.33 5.98 5.66 7.96 6 10 C8.64 10 11.28 10 14 10 C10.91190305 11.76462683 9.76687864 12 6 12 C5.34 12.66 4.68 13.32 4 14 C-0.59225513 4.58997722 -0.59225513 4.58997722 0 0 Z " fill="#5C5D58" transform="translate(158,194)"/>
<path d="M0 0 C0.66 0.33 1.32 0.66 2 1 C2.33 1.99 2.66 2.98 3 4 C5.97 4.495 5.97 4.495 9 5 C9 5.66 9 6.32 9 7 C5.04 7.66 1.08 8.32 -3 9 C-3.33 7.35 -3.66 5.7 -4 4 C-2.68 3.34 -1.36 2.68 0 2 C0 1.34 0 0.68 0 0 Z " fill="#F3F1EF" transform="translate(202,143)"/>
<path d="M0 0 C1.65 0 3.3 0 5 0 C4.01 0.33 3.02 0.66 2 1 C2 2.65 2 4.3 2 6 C3.32 6 4.64 6 6 6 C6 6.66 6 7.32 6 8 C6.66 8 7.32 8 8 8 C8.33 9.65 8.66 11.3 9 13 C8.34 13 7.68 13 7 13 C6.67 11.68 6.34 10.36 6 9 C4.68 9 3.36 9 2 9 C2 10.32 2 11.64 2 13 C1.34 13 0.68 13 0 13 C0 8.71 0 4.42 0 0 Z " fill="#474843" transform="translate(147,236)"/>
<path d="M0 0 C-0.33 0.99 -0.66 1.98 -1 3 C-6.3579607 5.21803143 -12.20142893 6.47015441 -18 6 C-18 5.34 -18 4.68 -18 4 C-15.94037148 3.32451422 -13.87715678 2.65995688 -11.8125 2 C-10.66394531 1.62875 -9.51539063 1.2575 -8.33203125 0.875 C-5.35679188 0.09369447 -3.04716104 -0.18363306 0 0 Z " fill="#E7A25B" transform="translate(149,192)"/>
<path d="M0 0 C0 0.66 0 1.32 0 2 C-2.41509441 2.67286212 -4.83180356 3.33846012 -7.25 4 C-7.93191406 4.19078125 -8.61382812 4.3815625 -9.31640625 4.578125 C-12.70600912 5.49957044 -15.45778976 6 -19 6 C-18.67 5.01 -18.34 4.02 -18 3 C-12.21365095 0.25909782 -6.30796903 -0.35044272 0 0 Z " fill="#E8A154" transform="translate(122,186)"/>
<path d="M0 0 C0 0.99 0 1.98 0 3 C-1.93117554 3.58384377 -3.87029395 4.14147054 -5.8125 4.6875 C-6.89144531 5.00074219 -7.97039062 5.31398437 -9.08203125 5.63671875 C-12 6 -12 6 -13.88671875 4.70703125 C-15 3 -15 3 -15 1 C-13.948125 1.020625 -12.89625 1.04125 -11.8125 1.0625 C-7.76871947 0.99620852 -4.01564529 0 0 0 Z " fill="#4F4C46" transform="translate(210,156)"/>
<path d="M0 0 C0.66 0 1.32 0 2 0 C1.34 5.28 0.68 10.56 0 16 C-0.99 16 -1.98 16 -3 16 C-3.33266291 9.79029227 -2.45029331 5.71735105 0 0 Z " fill="#E3A252" transform="translate(124,144)"/>
<path d="M0 0 C-2.62451617 2.62451617 -4.4877828 2.5832868 -8.125 3.125 C-9.22070312 3.29257813 -10.31640625 3.46015625 -11.4453125 3.6328125 C-12.70988281 3.81457031 -12.70988281 3.81457031 -14 4 C-14.33 3.01 -14.66 2.02 -15 1 C-4.44191344 -2.81321185 -4.44191344 -2.81321185 0 0 Z " fill="#575550" transform="translate(175,178)"/>
<path d="M0 0 C1.04449911 3.13349732 0.93423645 3.98968256 0 7 C0.66 7.33 1.32 7.66 2 8 C-7.01531729 10.27571116 -7.01531729 10.27571116 -11.125 9.125 C-11.74375 8.75375 -12.3625 8.3825 -13 8 C-13 7.67 -13 7.34 -13 7 C-12.22914063 6.82984375 -11.45828125 6.6596875 -10.6640625 6.484375 C-9.66117188 6.24203125 -8.65828125 5.9996875 -7.625 5.75 C-6.62726563 5.51796875 -5.62953125 5.2859375 -4.6015625 5.046875 C-1.864798 4.2376588 -1.864798 4.2376588 -0.6484375 1.890625 C-0.43445313 1.26671875 -0.22046875 0.6428125 0 0 Z " fill="#56574E" transform="translate(187,157)"/>
<path d="M0 0 C3.08089673 2.77280706 4.68775452 5.06326356 6 9 C5.01 9 4.02 9 3 9 C3 8.01 3 7.02 3 6 C2.01 6.495 2.01 6.495 1 7 C-1.3329866 7.04022391 -3.66706666 7.04320247 -6 7 C-4.02 4.69 -2.04 2.38 0 0 Z " fill="#CAC8C4" transform="translate(165,157)"/>
<path d="M0 0 C0.99 0 1.98 0 3 0 C3.06058594 0.60328125 3.12117187 1.2065625 3.18359375 1.828125 C3.26738281 2.62734375 3.35117188 3.4265625 3.4375 4.25 C3.55931641 5.43335938 3.55931641 5.43335938 3.68359375 6.640625 C3.97634993 8.82364639 4.42064419 10.8773182 5 13 C3.35 13 1.7 13 0 13 C0 8.71 0 4.42 0 0 Z " fill="#B6B4B0" transform="translate(189,147)"/>
<path d="M0 0 C1.65 0 3.3 0 5 0 C5.33 2.97 5.66 5.94 6 9 C3 11 3 11 0 11 C0.29296875 9.01432292 0.5859375 7.02864583 0.87890625 5.04296875 C1.13904799 2.7974658 1.13904799 2.7974658 0 0 Z " fill="#5E5E5A" transform="translate(218,204)"/>
<path d="M0 0 C-1.76902988 1.76902988 -4.35110253 1.66755956 -6.75 2.0625 C-7.79671875 2.23910156 -8.8434375 2.41570312 -9.921875 2.59765625 C-12.66392252 2.95607109 -15.24032952 3.07665751 -18 3 C-17.67 2.01 -17.34 1.02 -17 0 C-11.18323345 -2.8374471 -6.00674321 -2.00224774 0 0 Z " fill="#5C5B57" transform="translate(172,170)"/>
<path d="M0 0 C3.96 0 7.92 0 12 0 C12 1.32 12 2.64 12 4 C11.34 4 10.68 4 10 4 C10 3.34 10 2.68 10 2 C7.69 2.33 5.38 2.66 3 3 C2.34 5.31 1.68 7.62 1 10 C-1 8 -1 8 -1.125 5.375 C-1.08375 4.59125 -1.0425 3.8075 -1 3 C-0.34 2.67 0.32 2.34 1 2 C0.67 1.34 0.34 0.68 0 0 Z " fill="#44433B" transform="translate(171,128)"/>
<path d="M0 0 C0.804375 0.7425 0.804375 0.7425 1.625 1.5 C4.60059365 3.3793223 6.54314686 3.07514898 10 3 C10.66 3.66 11.32 4.32 12 5 C9.1778917 6.91903365 7.87098068 6.99110212 4.375 6.75 C1 6 1 6 -1 4 C-0.625 1.875 -0.625 1.875 0 0 Z " fill="#575551" transform="translate(208,211)"/>
<path d="M0 0 C-0.33 0.99 -0.66 1.98 -1 3 C-5.07467725 4.48882438 -8.66541415 5.26270217 -13 5 C-12.67 4.01 -12.34 3.02 -12 2 C-7.9083139 0.19204568 -4.44280672 -0.21156222 0 0 Z " fill="#4C4C48" transform="translate(203,211)"/>
<path d="M0 0 C1.875 2.0625 1.875 2.0625 3 4 C2.39671875 3.86980469 1.7934375 3.73960937 1.171875 3.60546875 C-1.29206983 3.18023956 -3.49948546 2.87949328 -6 3 C-8.62892786 5.26092815 -8.62892786 5.26092815 -10 8 C-10.25 5.1875 -10.25 5.1875 -10 2 C-6.96825255 -1.6147758 -4.31435792 -1.37692274 0 0 Z " fill="#B5B4AF" transform="translate(153,139)"/>
<path d="M0 0 C0 0.99 0 1.98 0 3 C-1.60256108 3.50512244 -3.20711792 4.00391627 -4.8125 4.5 C-6.15248047 4.91765625 -6.15248047 4.91765625 -7.51953125 5.34375 C-10 6 -10 6 -13 6 C-12.67 5.01 -12.34 4.02 -12 3 C-9.78515625 2.05078125 -9.78515625 2.05078125 -7.0625 1.3125 C-6.16660156 1.06113281 -5.27070313 0.80976563 -4.34765625 0.55078125 C-2 0 -2 0 0 0 Z " fill="#E2A463" transform="translate(156,204)"/>
<path d="M0 0 C3.25694723 3.02430814 5.72350913 6.17874747 8 10 C8 10.99 8 11.98 8 13 C7.01 13 6.02 13 5 13 C1.52110606 8.80486318 0.43142926 5.39286575 0 0 Z " fill="#494844" transform="translate(146,155)"/>
<path d="M0 0 C0 2.97 0 5.94 0 9 C-0.33 8.34 -0.66 7.68 -1 7 C-1.66 7 -2.32 7 -3 7 C-3 5.35 -3 3.7 -3 2 C-5.64 1.67 -8.28 1.34 -11 1 C-11 0.67 -11 0.34 -11 0 C-6.79405774 -0.72795155 -4.19895255 -1.04973814 0 0 Z " fill="#474742" transform="translate(185,119)"/>
<path d="M0 0 C-0.6875 1.9375 -0.6875 1.9375 -2 4 C-5.29427581 5.09809194 -6.66411172 5.11196276 -10 4 C-10.33 3.01 -10.66 2.02 -11 1 C-7.26513121 0.4254048 -3.78706732 0 0 0 Z " fill="#F9F7F4" transform="translate(208,152)"/>
<path d="M0 0 C0.99 0 1.98 0 3 0 C2.25 7.625 2.25 7.625 0 11 C-0.66 11 -1.32 11 -2 11 C-1 3.57142857 -1 3.57142857 0 0 Z " fill="#E9A258" transform="translate(210,116)"/>
<path d="M0 0 C1.98 0 3.96 0 6 0 C4.68 0.33 3.36 0.66 2 1 C2 2.65 2 4.3 2 6 C2.99 6.33 3.98 6.66 5 7 C4.01 7 3.02 7 2 7 C2 8.98 2 10.96 2 13 C1.34 13 0.68 13 0 13 C0 8.71 0 4.42 0 0 Z " fill="#3C3C39" transform="translate(207,236)"/>
<path d="M0 0 C0 0.99 0 1.98 0 3 C-3.01324195 4.50662097 -5.68286377 4.17770373 -9 4 C-9.66 3.34 -10.32 2.68 -11 2 C-7.17010894 0.19769832 -4.21878192 -0.19622241 0 0 Z " fill="#565653" transform="translate(209,185)"/>
<path d="M0 0 C0.33 0 0.66 0 1 0 C1 1.65 1 3.3 1 5 C1.66 5.33 2.32 5.66 3 6 C2.01 8.97 1.02 11.94 0 15 C-0.33 14.34 -0.66 13.68 -1 13 C-1.66 12.67 -2.32 12.34 -3 12 C-2.01 8.04 -1.02 4.08 0 0 Z " fill="#E2A867" transform="translate(233,171)"/>
<path d="M0 0 C2.33486745 3.64823039 2.30399283 6.74410043 2 11 C1 13.4375 1 13.4375 0 15 C-0.33 15 -0.66 15 -1 15 C-1.02703381 13.06257659 -1.04641125 11.12504521 -1.0625 9.1875 C-1.07410156 8.10855469 -1.08570313 7.02960938 -1.09765625 5.91796875 C-1 3 -1 3 0 0 Z " fill="#46463C" transform="translate(187,143)"/>
<path d="M0 0 C0.05391993 1.79133978 0.09275571 3.58313899 0.125 5.375 C0.14820313 6.37273437 0.17140625 7.37046875 0.1953125 8.3984375 C0 11 0 11 -2 13 C-2.41694996 11.40119187 -2.80790856 9.79558739 -3.1875 8.1875 C-3.40792969 7.29417969 -3.62835938 6.40085938 -3.85546875 5.48046875 C-4 3 -4 3 -2.61328125 1.17578125 C-1 0 -1 0 0 0 Z " fill="#51504A" transform="translate(143,137)"/>
<path d="M0 0 C-0.3125 1.9375 -0.3125 1.9375 -1 4 C-1.99 4.33 -2.98 4.66 -4 5 C-4 5.66 -4 6.32 -4 7 C-4.66 7 -5.32 7 -6 7 C-6 7.66 -6 8.32 -6 9 C-6.99 9 -7.98 9 -9 9 C-8.67 7.68 -8.34 6.36 -8 5 C-7.34 5 -6.68 5 -6 5 C-6 4.34 -6 3.68 -6 3 C-2.53846154 0 -2.53846154 0 0 0 Z " fill="#E2A965" transform="translate(226,123)"/>
<path d="M0 0 C0 0.66 0 1.32 0 2 C-3.63423209 4.32590854 -6.77088331 4.16265833 -11 4 C-11 3.34 -11 2.68 -11 2 C-7.17010894 0.19769832 -4.21878192 -0.19622241 0 0 Z " fill="#E8A159" transform="translate(142,180)"/>
<path d="M0 0 C-0.33 0.66 -0.66 1.32 -1 2 C-3.64860427 2.59355614 -6.29197322 2.74209269 -9 3 C-9.33 1.68 -9.66 0.36 -10 -1 C-6.18510326 -2.46726798 -3.70988378 -1.43336419 0 0 Z " fill="#63625D" transform="translate(219,156)"/>
<path d="M0 0 C2.64 0.33 5.28 0.66 8 1 C8 2.32 8 3.64 8 5 C5.125 5.125 5.125 5.125 2 5 C1.34 4.34 0.68 3.68 0 3 C0 2.01 0 1.02 0 0 Z " fill="#EEEDEA" transform="translate(149,153)"/>
<path d="M0 0 C-0.33 0.99 -0.66 1.98 -1 3 C-8.625 4.25 -8.625 4.25 -12 2 C-7.82262526 0.40861915 -4.46839215 -0.21278058 0 0 Z " fill="#494842" transform="translate(209,176)"/>
<path d="M0 0 C2.46800047 1.15173355 4.04783565 2.04783565 6 4 C6.125 6.625 6.125 6.625 6 9 C5.01 9 4.02 9 3 9 C0 3.375 0 3.375 0 0 Z " fill="#4B4B47" transform="translate(200,133)"/>
<path d="M0 0 C0 0.99 0 1.98 0 3 C-2.64 3.66 -5.28 4.32 -8 5 C-7 1 -7 1 -5.125 -0.3125 C-3 -1 -3 -1 0 0 Z " fill="#5C5A56" transform="translate(196,170)"/>
<path d="M0 0 C0 2.64 0 5.28 0 8 C-0.33 7.01 -0.66 6.02 -1 5 C-1.99 5 -2.98 5 -4 5 C-4.33 6.32 -4.66 7.64 -5 9 C-5.66 8.67 -6.32 8.34 -7 8 C-5.52631579 2.35087719 -5.52631579 2.35087719 -2.9375 0.625 C-1 0 -1 0 0 0 Z " fill="#B4B3B0" transform="translate(179,239)"/>
<path d="M0 0 C0 0.66 0 1.32 0 2 C-1.26839526 2.50615298 -2.53983102 3.00469099 -3.8125 3.5 C-4.87404297 3.91765625 -4.87404297 3.91765625 -5.95703125 4.34375 C-8 5 -8 5 -11 5 C-10.67 4.01 -10.34 3.02 -10 2 C-6.3962102 0.47839986 -3.94779314 0 0 0 Z " fill="#E39F5E" transform="translate(234,136)"/>
<path d="M0 0 C0.66 0 1.32 0 2 0 C3.42258812 3.82320557 4.24042276 6.91281305 4 11 C3.34 11 2.68 11 2 11 C0.19769832 7.17010894 -0.19622241 4.21878192 0 0 Z " fill="#EA9A4A" transform="translate(196,116)"/>
<path d="M0 0 C0.99 0 1.98 0 3 0 C3 0.66 3 1.32 3 2 C4.32 2.33 5.64 2.66 7 3 C6.67 3.99 6.34 4.98 6 6 C5.34 6 4.68 6 4 6 C4 6.66 4 7.32 4 8 C3.34 8 2.68 8 2 8 C1.34 5.36 0.68 2.72 0 0 Z " fill="#6F706C" transform="translate(220,236)"/>
<path d="M0 0 C2.97 0 5.94 0 9 0 C9.33 1.32 9.66 2.64 10 4 C11.32 4.33 12.64 4.66 14 5 C13.67 5.66 13.34 6.32 13 7 C12.01 7 11.02 7 10 7 C9.835 6.38125 9.67 5.7625 9.5 5.125 C7.09818625 1.72243051 3.99837866 1.77387974 0 1 C0 0.67 0 0.34 0 0 Z " fill="#A6A5A0" transform="translate(177,209)"/>
<path d="M0 0 C0 1.32 0 2.64 0 4 C-3.3 4 -6.6 4 -10 4 C-9.01 3.67 -8.02 3.34 -7 3 C-7 2.34 -7 1.68 -7 1 C-2.25 0 -2.25 0 0 0 Z " fill="#F2F1ED" transform="translate(168,163)"/>
<path d="M0 0 C3.125 -0.1875 3.125 -0.1875 6 0 C5.360625 0.226875 4.72125 0.45375 4.0625 0.6875 C1.72806339 1.85250896 1.72806339 1.85250896 1.25 4.625 C1.1675 5.40875 1.085 6.1925 1 7 C0.34 7 -0.32 7 -1 7 C-1.33 7.66 -1.66 8.32 -2 9 C-2.25 3.375 -2.25 3.375 0 0 Z " fill="#585752" transform="translate(163,237)"/>
<path d="M0 0 C0 0.66 0 1.32 0 2 C0.66 2.33 1.32 2.66 2 3 C1.401875 3.2475 0.80375 3.495 0.1875 3.75 C-2.28647521 5.16370012 -3.43370255 6.65055383 -5 9 C-5 6.37886292 -4.68707555 4.49064888 -4 2 C-4.66 1.67 -5.32 1.34 -6 1 C-3.92446352 0.4465236 -2.15634036 0 0 0 Z " fill="#C1C1BD" transform="translate(175,207)"/>
<path d="M0 0 C0.33 0 0.66 0 1 0 C1.33 2.31 1.66 4.62 2 7 C3.32 7.33 4.64 7.66 6 8 C6 8.33 6 8.66 6 9 C3.625 9.125 3.625 9.125 1 9 C-1 7 -1 7 -1.1875 3.9375 C-1 1 -1 1 0 0 Z " fill="#C6C4C0" transform="translate(196,149)"/>
<path d="M0 0 C1.65 0 3.3 0 5 0 C5 1.98 5 3.96 5 6 C4.01 6.495 4.01 6.495 3 7 C0.875 6.0625 0.875 6.0625 -1 5 C-0.01 5 0.98 5 2 5 C2 3.68 2 2.36 2 1 C1.34 0.67 0.68 0.34 0 0 Z " fill="#52514F" transform="translate(136,242)"/>
<path d="M0 0 C2.97 0 5.94 0 9 0 C6 3 6 3 2.8125 3.1875 C1.4203125 3.0946875 1.4203125 3.0946875 0 3 C0 2.01 0 1.02 0 0 Z " fill="#4B4840" transform="translate(176,224)"/>
<path d="M0 0 C0.99 0 1.98 0 3 0 C2.67 3.3 2.34 6.6 2 10 C1.01 10 0.02 10 -1 10 C-0.67 6.7 -0.34 3.4 0 0 Z " fill="#A6A6A1" transform="translate(204,203)"/>
<path d="M0 0 C0 0.66 0 1.32 0 2 C-2.64 2.33 -5.28 2.66 -8 3 C-8 3.66 -8 4.32 -8 5 C-10.97 4.505 -10.97 4.505 -14 4 C-9.39033958 1.51787516 -5.27072485 0 0 0 Z " fill="#C2C0BB" transform="translate(194,202)"/>
<path d="M0 0 C0.66 0.66 1.32 1.32 2 2 C-4.4 3.35384615 -4.4 3.35384615 -7.4375 1.5625 C-7.953125 1.046875 -8.46875 0.53125 -9 0 C-5.47955362 -1.17348213 -3.57539179 -0.83679382 0 0 Z " fill="#5C5B57" transform="translate(189,182)"/>
<path d="M0 0 C0.33 0.99 0.66 1.98 1 3 C-0.43359375 5.04296875 -0.43359375 5.04296875 -2.4375 7.1875 C-3.09621094 7.90292969 -3.75492188 8.61835938 -4.43359375 9.35546875 C-4.95050781 9.89816406 -5.46742188 10.44085938 -6 11 C-6.33 10.34 -6.66 9.68 -7 9 C-5.8687523 6.07761012 -4.40710139 4.00591782 -2 2 C-1.34 2 -0.68 2 0 2 C0 1.34 0 0.68 0 0 Z " fill="#B7B5B1" transform="translate(162,152)"/>
<path d="M0 0 C2 3 2 3 2 5 C2.66 5 3.32 5 4 5 C4 5.99 4 6.98 4 8 C1.03 7.505 1.03 7.505 -2 7 C-1.34 4.69 -0.68 2.38 0 0 Z " fill="#4B4843" transform="translate(217,148)"/>
<path d="M0 0 C0.33 0.66 0.66 1.32 1 2 C2.65 1.34 4.3 0.68 6 0 C3.75 2.5 3.75 2.5 1 5 C-0.32 5 -1.64 5 -3 5 C-1.125 1.125 -1.125 1.125 0 0 Z " fill="#5F5D5A" transform="translate(155,148)"/>
<path d="M0 0 C0.33 0.99 0.66 1.98 1 3 C-1.95664519 4.4783226 -4.74229737 4.06032783 -8 4 C-7.34 3.67 -6.68 3.34 -6 3 C-6 2.34 -6 1.68 -6 1 C-3 0 -3 0 0 0 Z " fill="#F9F8F5" transform="translate(192,204)"/>
<path d="M0 0 C3.63 0.33 7.26 0.66 11 1 C7 3 7 3 3 3 C2.34 3.66 1.68 4.32 1 5 C0.67 3.35 0.34 1.7 0 0 Z " fill="#797672" transform="translate(161,203)"/>
<path d="M0 0 C0.66 0 1.32 0 2 0 C2.66 0.99 3.32 1.98 4 3 C3.67 3.99 3.34 4.98 3 6 C0 6 0 6 -3 4 C-2 2 -2 2 0 0 Z " fill="#82827E" transform="translate(150,178)"/>
<path d="M0 0 C0 1.32 0 2.64 0 4 C-1.65 3.67 -3.3 3.34 -5 3 C-5.33 2.01 -5.66 1.02 -6 0 C-3 -1 -3 -1 0 0 Z " fill="#CDCDC9" transform="translate(138,243)"/>
<path d="M0 0 C-0.33 1.32 -0.66 2.64 -1 4 C-2.65 4 -4.3 4 -6 4 C-6 2.68 -6 1.36 -6 0 C-3 -1 -3 -1 0 0 Z " fill="#62625D" transform="translate(210,167)"/>
<path d="M0 0 C2.31 0 4.62 0 7 0 C6.34 1.65 5.68 3.3 5 5 C3.35 4.67 1.7 4.34 0 4 C0 2.68 0 1.36 0 0 Z " fill="#C2C1BE" transform="translate(156,237)"/>
<path d="M0 0 C3.375 -0.125 3.375 -0.125 7 0 C9 2 9 2 9.125 5.125 C9.08375 6.07375 9.0425 7.0225 9 8 C7 6 7 6 6.1875 3.9375 C5.12640104 1.71610925 5.12640104 1.71610925 2.375 1.25 C1.59125 1.1675 0.8075 1.085 0 1 C0 0.67 0 0.34 0 0 Z " fill="#3D3D3A" transform="translate(164,236)"/>
<path d="M0 0 C2.31 0.66 4.62 1.32 7 2 C5 4 5 4 1.875 4.125 C0.451875 4.063125 0.451875 4.063125 -1 4 C-0.67 2.68 -0.34 1.36 0 0 Z " fill="#47443F" transform="translate(164,205)"/>
<path d="M0 0 C-2 2 -2 2 -5.625 2.125 C-6.73875 2.08375 -7.8525 2.0425 -9 2 C-9 1.34 -9 0.68 -9 0 C-5.93109813 -1.53445094 -3.29905734 -0.54984289 0 0 Z " fill="#4A4A46" transform="translate(184,184)"/>
<path d="M0 0 C1.04449911 3.13349732 0.93423645 3.98968256 0 7 C0.66 7.33 1.32 7.66 2 8 C0.35 8.33 -1.3 8.66 -3 9 C-2.67 8.01 -2.34 7.02 -2 6 C-2.66 5.67 -3.32 5.34 -4 5 C-3.34 4.67 -2.68 4.34 -2 4 C-0.86649466 1.98330173 -0.86649466 1.98330173 0 0 Z " fill="#64635C" transform="translate(187,157)"/>
<path d="M0 0 C1.60495567 0.11442461 3.20898119 0.24194694 4.8125 0.375 C5.70582031 0.44460937 6.59914062 0.51421875 7.51953125 0.5859375 C10 1 10 1 13 3 C11.58430936 3.08167446 10.16723195 3.13949698 8.75 3.1875 C7.96109375 3.22230469 7.1721875 3.25710937 6.359375 3.29296875 C3.48287032 2.93578688 2.15423231 1.88248282 0 0 Z " fill="#605E5A" transform="translate(169,119)"/>
<path d="M0 0 C2.31 0 4.62 0 7 0 C7 0.66 7 1.32 7 2 C5.68 2 4.36 2 3 2 C2.67 2.99 2.34 3.98 2 5 C1.34 4.67 0.68 4.34 0 4 C0 2.68 0 1.36 0 0 Z " fill="#676764" transform="translate(181,236)"/>
<path d="M0 0 C2.64 0 5.28 0 8 0 C8.33 0.66 8.66 1.32 9 2 C6.36 2 3.72 2 1 2 C1 2.66 1 3.32 1 4 C0.01 4 -0.98 4 -2 4 C-1.34 2.68 -0.68 1.36 0 0 Z " fill="#4A4A49" transform="translate(132,236)"/>
<path d="M0 0 C1.65 0 3.3 0 5 0 C5.33 0.66 5.66 1.32 6 2 C5.01 2 4.02 2 3 2 C2.67 3.32 2.34 4.64 2 6 C1.34 5.34 0.68 4.68 0 4 C0 2.68 0 1.36 0 0 Z " fill="#41413B" transform="translate(167,120)"/>
<path d="M0 0 C0 0.66 0 1.32 0 2 C-3.08809695 3.76462683 -4.23312136 4 -8 4 C-8 3.34 -8 2.68 -8 2 C-4.77208445 -0.1519437 -3.71599191 -0.20086443 0 0 Z " fill="#EB9D4E" transform="translate(156,112)"/>
<path d="M0 0 C-0.33 0.99 -0.66 1.98 -1 3 C-2.875 3.875 -2.875 3.875 -5 4 C-6.75 2.5625 -6.75 2.5625 -8 1 C-5.07175348 0.02391783 -3.04386724 -0.08226668 0 0 Z " fill="#E3A969" transform="translate(149,192)"/>
<path d="M0 0 C0.66 0.33 1.32 0.66 2 1 C1.74438677 3.3431213 1.40729228 5.67843403 1 8 C0.01 8.495 0.01 8.495 -1 9 C-1.09765625 2.84765625 -1.09765625 2.84765625 -1 1 C-0.67 0.67 -0.34 0.34 0 0 Z " fill="#44433F" transform="translate(180,237)"/>
<path d="M0 0 C1.32 0.33 2.64 0.66 4 1 C3.67 2.32 3.34 3.64 3 5 C2.01 5 1.02 5 0 5 C0 3.35 0 1.7 0 0 Z " fill="#C6C5C0" transform="translate(149,237)"/>
<path d="M0 0 C-0.33 1.32 -0.66 2.64 -1 4 C-2.65 3.67 -4.3 3.34 -6 3 C-3.375 0 -3.375 0 0 0 Z " fill="#E9A364" transform="translate(125,198)"/>
<path d="M0 0 C-0.33 1.32 -0.66 2.64 -1 4 C-3.97 3.505 -3.97 3.505 -7 3 C-4.74624683 0.74624683 -3.20799182 0 0 0 Z " fill="#4F4C47" transform="translate(170,166)"/>
<path d="M0 0 C2 3 2 3 2 7 C2.66 7.33 3.32 7.66 4 8 C2.02 8 0.04 8 -2 8 C-2 7.34 -2 6.68 -2 6 C-1.34 6 -0.68 6 0 6 C-0.2784375 5.071875 -0.2784375 5.071875 -0.5625 4.125 C-1 2 -1 2 0 0 Z " fill="#434138" transform="translate(194,154)"/>
<path d="M0 0 C-3.13498292 1.85776765 -5.37471432 2.20140476 -9 2 C-9 1.34 -9 0.68 -9 0 C-5.93109813 -1.53445094 -3.29905734 -0.54984289 0 0 Z " fill="#E39C55" transform="translate(172,108)"/>
<path d="M0 0 C1.32 0 2.64 0 4 0 C4 0.66 4 1.32 4 2 C4.66 2 5.32 2 6 2 C6.33 3.65 6.66 5.3 7 7 C6.34 7 5.68 7 5 7 C4.731875 6.030625 4.46375 5.06125 4.1875 4.0625 C3.795625 3.051875 3.40375 2.04125 3 1 C2.01 0.67 1.02 0.34 0 0 Z " fill="#41413C" transform="translate(149,242)"/>
<path d="M0 0 C1.32 0.66 2.64 1.32 4 2 C3.01 2.495 3.01 2.495 2 3 C1.67 3.66 1.34 4.32 1 5 C-0.98 4.34 -2.96 3.68 -5 3 C-4.360625 2.690625 -3.72125 2.38125 -3.0625 2.0625 C-1.06389179 1.1654837 -1.06389179 1.1654837 0 0 Z " fill="#6E6D69" transform="translate(182,210)"/>
<path d="M0 0 C0.94875 0.350625 1.8975 0.70125 2.875 1.0625 C2.875 1.3925 2.875 1.7225 2.875 2.0625 C0.565 2.3925 -1.745 2.7225 -4.125 3.0625 C-4.455 2.0725 -4.785 1.0825 -5.125 0.0625 C-3.125 -0.9375 -3.125 -0.9375 0 0 Z " fill="#53524E" transform="translate(199.125,178.9375)"/>
<path d="M0 0 C1.32 0 2.64 0 4 0 C4.625 1.875 4.625 1.875 5 4 C4.34 4.66 3.68 5.32 3 6 C0 2.25 0 2.25 0 0 Z " fill="#92918C" transform="translate(164,148)"/>
<path d="M0 0 C2.31 0.33 4.62 0.66 7 1 C4.33333333 2.33333333 1.66666667 3.66666667 -1 5 C-0.67 3.35 -0.34 1.7 0 0 Z " fill="#444339" transform="translate(144,136)"/>
</svg>
